<?xml version="1.0" encoding="utf-8"?>
<!-- Generator: Adobe Illustrator 23.0.3, SVG Export Plug-In . SVG Version: 6.00 Build 0)  -->
<svg version="1.1" id="Layer_1" xmlns="http://www.w3.org/2000/svg" xmlns:xlink="http://www.w3.org/1999/xlink" x="0px" y="0px"
	 viewBox="0 0 70 70" style="enable-background:new 0 0 70 70;" xml:space="preserve">
<style type="text/css">
	.st0{fill:#FFFFFF;}
	.st1{fill:none;}
	.st2{fill:#FDB913;}
	.st3{fill:#2679AB;}
	.st4{fill:#E83425;}
	.st5{fill:#F9A71A;}
	.st6{fill:#80BE42;}
	.st7{opacity:0.5;fill:#136893;}
	.st8{opacity:0.42;fill:#29788E;}
	.st9{fill:#136893;}
	.st10{fill:#3CAEE3;}
</style>
<g>
	<g>
		<path class="st4" d="M54.54,18.25H15.46c-2.86,0-5.18,2.32-5.18,5.18v22.65c0,2.86,2.32,5.18,5.18,5.18h39.09
			c2.86,0,5.18-2.32,5.18-5.18V23.43C59.72,20.57,57.4,18.25,54.54,18.25z M57.04,44.54C57.24,47,55,49.1,52.48,49.1H17.52
			c-2.52,0-4.56-2.04-4.56-4.56V24.95c0-2.52,2.04-4.56,4.56-4.56h34.97c2.52,0,4.56,2.04,4.56,4.56V44.54z"/>
		<path class="st2" d="M14.28,47.76c-0.82-0.82-1.33-1.96-1.33-3.21V24.95c0-2.52,2.04-4.56,4.56-4.56h34.97
			c1.19,0,2.28,0.46,3.09,1.21l2.73-1.73c-0.94-1-2.28-1.63-3.76-1.63H15.46c-2.86,0-5.18,2.32-5.18,5.18v22.65
			c0,1.31,0.49,2.5,1.29,3.41L14.28,47.76z"/>
		<path class="st2" d="M14.44,18.35l20.57,12.91v3.85L11.26,20.4C11.26,20.4,12.25,18.78,14.44,18.35z"/>
		<path class="st3" d="M58.31,19.88L58.31,19.88c-0.48-0.51-1.38-1.25-2.77-1.53L35.01,31.26v3.85L56.1,22.2
			c0.6,0.8,0.94,1.84,0.94,2.89v19.49c0,0.73-0.24,1.98-0.99,2.88c-0.53,0.64-1.39,1.21-1.88,1.33l2.88,1.82
			c0.08-0.05,0.91-0.46,1.56-1.33c0.69-0.88,1.11-1.98,1.11-3.18V23.56C59.72,22.14,59.25,20.81,58.31,19.88z"/>
	</g>
	<path class="st6" d="M17.7,20.4l-3.25-2.04c0,0,0.36-0.1,1.54-0.1s38.63,0,38.63,0s0.61,0.03,0.93,0.1l-3.25,2.04H17.7z"/>
</g>
<rect x="0" class="st1" width="70" height="70"/>
</svg>
